# xmcd
#
# Track frame offsets:
#	150
#	13729
#	24294
#	42362
#	54913
#	66566
#	86276
#	102592
#	114543
#	126868
#	142928
#	156833
#
# Disc length: 2270 seconds
# Revision: 0
# Processed by: cddbd v1.5.2PL0 Copyright (c) Steve Scherf et al.
# Submitted via: dBpowerAMP V12.0
#
DISCID=9b08dc0c
DTITLE=Cahalen Morrison and Country Hammer - The Flower of Muscle Shoals
DYEAR=2014
DGENRE=Country
TTITLE0=Nighttime is Here On the Valley
TTITLE1=The Flower of Muscle Shoals
TTITLE2=Cascabel Valley
TTITLE3=Sorrow Lines the Highway of Regret
TTITLE4=The Delta Divine
TTITLE5=Over and Over and Over Again
TTITLE6=I've Won Every Battle, But I've Lost Every War
TTITLE7=Our Love is Like a Hurricane
TTITLE8=San Luis
TTITLE9=Through Your Window
TTITLE10=Hobbled and Grazing
TTITLE11=A Daisy In Tennessee
EXTD=
EXTT0=
EXTT1=
EXTT2=
EXTT3=
EXTT4=
EXTT5=
EXTT6=
EXTT7=
EXTT8=
EXTT9=
EXTT10=
EXTT11=
PLAYORDER=
